<svg viewBox="0 0 124.56 47.5" xmlns="http://www.w3.org/2000/svg" xmlns:xlink="http://www.w3.org/1999/xlink" id="Camada_2" overflow="hidden"><defs><linearGradient x1="19.77" y1="23.75" x2="28.63" y2="23.75" gradientUnits="userSpaceOnUse" id="Gradiente_sem_nome_472"><stop offset="0" stop-color="#284796"/><stop offset="0.21" stop-color="#3860A9"/><stop offset="0.23" stop-color="#3861AA"/><stop offset="0.46" stop-color="#4174B8"/><stop offset="0.53" stop-color="#4679BB"/><stop offset="0.67" stop-color="#4B7EBF"/><stop offset="0.74" stop-color="#4D86C5"/><stop offset="0.86" stop-color="#5293CE"/></linearGradient><linearGradient x1="25.56" y1="16.34" x2="40.65" y2="25.05" gradientUnits="userSpaceOnUse" id="Gradiente_sem_nome_421"><stop offset="0.45" stop-color="#93D4F1"/><stop offset="0.54" stop-color="#89CFE3"/><stop offset="0.8" stop-color="#71C4C2"/><stop offset="0.94" stop-color="#69C0B6"/></linearGradient><linearGradient x1="5.05" y1="36.53" x2="17.72" y2="34.29" gradientUnits="userSpaceOnUse" id="Gradiente_sem_nome_515"><stop offset="0.1" stop-color="#27367F"/><stop offset="0.38" stop-color="#2B55A1"/><stop offset="0.74" stop-color="#2D55A1"/></linearGradient><linearGradient x1="22.63" y1="41.94" x2="35.94" y2="41.94" gradientUnits="userSpaceOnUse" id="Gradiente_sem_nome_521"><stop offset="0.34" stop-color="#3BABB7"/><stop offset="0.63" stop-color="#45B8B3"/><stop offset="0.88" stop-color="#51B9AE"/></linearGradient></defs><text fill="#329896" font-family="Montserrat-SemiBold,Montserrat" font-weight="600" font-size="6" transform="translate(115.31 26.8)"><tspan x="0" y="0">RH</tspan></text><g><path d="M23.47 3.52C16.06 12.81 8.64 22.1 1.22 31.39 1.1 31.54-0.57 33.7 0.2 36.51 0.66 38.2 1.86 39.65 3.62 40.21L40.27 47.35C44.67 47.92 46.36 47.07 45.13 42.43L33.26 2.98C31.6-0.76 26.88-1.23 23.9 2.98 23.76 3.16 23.61 3.34 23.47 3.52M27.19 8.94 40.01 40.24 11.91 31.82 27.19 8.94" fill="url(#Gradiente_sem_nome_472)"/><path d="M40.01 40.24 39.97 40.24C41.67 42.34 43.34 44.48 45.06 46.58 45.65 45.81 45.69 44.49 45.14 42.43L33.26 2.98C31.85-0.19 28.23-1.01 25.35 1.39 26.16 3.95 26.97 6.52 27.28 9.15L40.02 40.24Z" fill="url(#Gradiente_sem_nome_421)"/><path d="M3.62 40.23 7.57 41C9.5 38.06 11.47 35.16 13.53 32.33L13.4 32.29C9.17 32.42 4.89 32.52 0.63 32.4 0.19 33.32-0.27 34.81 0.2 36.53 0.66 38.22 1.86 39.67 3.62 40.23Z" fill="url(#Gradiente_sem_nome_515)"/><path d="M45.51 44.45C43.64 43.08 41.85 41.49 39.91 40.21L27.09 36.37C23.7 38.6 20.25 40.71 16.77 42.77L40.29 47.35C43.95 47.82 45.73 47.31 45.52 44.45Z" fill="url(#Gradiente_sem_nome_521)"/></g><text fill="#122B5A" font-family="Montserrat-SemiBold,Montserrat" font-weight="600" font-size="14.37" transform="matrix(1.06 0 0 1 45.54 33.04)"><tspan letter-spacing="-0.01em" x="0" y="0">V</tspan><tspan letter-spacing="0em" x="10.26" y="0">É</tspan><tspan letter-spacing="0em" x="19.89" y="0">R</tspan><tspan x="30.25" y="0">TICE</tspan></text></svg>